<?xml version="1.0" encoding="UTF-8" standalone="no"?>
<svg
   version="1.1"
   x="0px"
   y="0px"
   width="1023"
   height="746"
   viewBox="0 0  1023 746"
   id="home"
   sodipodi:docname="home.svg"
   inkscape:version="1.2.1 (9c6d41e410, 2022-07-14)"
   xml:space="preserve"
   xmlns:inkscape="http://www.inkscape.org/namespaces/inkscape"
   xmlns:sodipodi="http://sodipodi.sourceforge.net/DTD/sodipodi-0.dtd"
   xmlns:xlink="http://www.w3.org/1999/xlink"
   xmlns="http://www.w3.org/2000/svg"
   xmlns:svg="http://www.w3.org/2000/svg"><defs
     id="defs238596"><symbol
       id="icon.humidity"><path
         id="path289051"
         d="M12,3.25C12,3.25 6,10 6,14C6,17.32 8.69,20 12,20A6,6 0 0,0 18,14C18,10 12,3.25 12,3.25M14.47,9.97L15.53,11.03L9.53,17.03L8.47,15.97M9.75,10A1.25,1.25 0 0,1 11,11.25A1.25,1.25 0 0,1 9.75,12.5A1.25,1.25 0 0,1 8.5,11.25A1.25,1.25 0 0,1 9.75,10M14.25,14.5A1.25,1.25 0 0,1 15.5,15.75A1.25,1.25 0 0,1 14.25,17A1.25,1.25 0 0,1 13,15.75A1.25,1.25 0 0,1 14.25,14.5Z" /></symbol><symbol
       id="icon.temperature"><path
         id="path289787"
         d="M15 13V5A3 3 0 0 0 9 5V13A5 5 0 1 0 15 13M12 4A1 1 0 0 1 13 5V8H11V5A1 1 0 0 1 12 4Z" /></symbol><symbol
       id="icon.co2"><path
         id="path289811"
         d="M5,7A2,2 0 0,0 3,9V15A2,2 0 0,0 5,17H8V15H5V9H8V7H5M11,7A2,2 0 0,0 9,9V15A2,2 0 0,0 11,17H13A2,2 0 0,0 15,15V9A2,2 0 0,0 13,7H11M11,9H13V15H11V9M16,10.5V12H19V13.5H17.5A1.5,1.5 0 0,0 16,15V18H20.5V16.5H17.5V15H19A1.5,1.5 0 0,0 20.5,13.5V12A1.5,1.5 0 0,0 19,10.5H16Z" /></symbol><symbol
       id="icon.motion"><path
         id="path292297"
         d="m 167.09188,76.456659 c -11.10441,0 -19.98793,8.883522 -19.98793,19.987924 0,11.104407 8.88352,19.987927 19.98793,19.987927 11.1044,0 19.98792,-8.88352 19.98792,-19.987927 0,-11.104402 -8.88352,-19.987924 -19.98792,-19.987924 m 62.96196,8.883522 A 81.395267,81.395267 0 0 0 311.4491,166.73545 V 151.96659 A 66.626412,66.626412 0 0 1 244.82269,85.340181 h -14.76885 m 29.53771,0 c 0,28.649359 23.2082,51.857559 51.85755,51.857559 v -14.8799 c -20.4321,0 -36.97766,-16.54556 -36.97766,-36.977659 h -14.87989 m 29.64875,0 a 22.208804,22.208804 0 0 0 22.2088,22.208809 V 85.340181 H 289.2403 M 143.99472,118.98652 c -1.88775,0 -3.7755,0.33313 -5.5522,0.88835 l -60.185861,18.76644 v 57.74289 h 19.987924 v -40.75315 l 23.430287,-7.32891 -43.418211,170.23048 h 19.987924 l 31.869637,-90.0567 25.87325,34.53469 v 55.52201 h 19.98793 v -71.17921 l -27.64996,-50.41399 8.10621,-31.86963 11.99275,20.21001 h 54.18949 v -19.98792 h -40.19794 l -22.2088,-36.97766 c -3.33132,-5.5522 -9.3277,-9.3277 -16.21243,-9.3277 z" /></symbol><symbol
       id="icon.voc"><path
         id="path293319"
         d="M7.27,10L9,7H14.42L15.58,5L15.5,4.5A1.5,1.5 0 0,1 17,3A1.5,1.5 0 0,1 18.5,4.5C18.5,5.21 18,5.81 17.33,5.96L16.37,7.63L17.73,10L18.59,8.5L18.5,8A1.5,1.5 0 0,1 20,6.5A1.5,1.5 0 0,1 21.5,8C21.5,8.71 21,9.3 20.35,9.46L18.89,12L20.62,15C21.39,15.07 22,15.71 22,16.5A1.5,1.5 0 0,1 20.5,18A1.5,1.5 0 0,1 19,16.5V16.24L17.73,14L16.37,16.37L17.33,18.04C18,18.19 18.5,18.79 18.5,19.5A1.5,1.5 0 0,1 17,21A1.5,1.5 0 0,1 15.5,19.5L15.58,19L14.42,17H10.58L9.42,19L9.5,19.5A1.5,1.5 0 0,1 8,21A1.5,1.5 0 0,1 6.5,19.5C6.5,18.79 7,18.19 7.67,18.04L8.63,16.37L4.38,9C3.61,8.93 3,8.29 3,7.5A1.5,1.5 0 0,1 4.5,6A1.5,1.5 0 0,1 6,7.5C6,7.59 6,7.68 6,7.76L7.27,10M10.15,9L8.42,12L10.15,15H14.85L16.58,12L14.85,9H10.15Z" /></symbol><symbol
       id="icon.water"><path
         id="path294909"
         d="M19,14.5C19,14.5 21,16.67 21,18A2,2 0 0,1 19,20A2,2 0 0,1 17,18C17,16.67 19,14.5 19,14.5M5,18V9A2,2 0 0,1 3,7A2,2 0 0,1 5,5V4A2,2 0 0,1 7,2H9A2,2 0 0,1 11,4V5H19A2,2 0 0,1 21,7V9L21,11A1,1 0 0,1 22,12A1,1 0 0,1 21,13H17A1,1 0 0,1 16,12A1,1 0 0,1 17,11V9H11V18H12A2,2 0 0,1 14,20V22H2V20A2,2 0 0,1 4,18H5Z" /></symbol><symbol
       id="icon.lamp"><path
         id="path292339"
         d="m 208.75,99.955 8.28,36.25 c -6.43,-0.63 -12.95,-0.96 -19.54,-0.96 -6.6,0 -13.12,0.33 -19.55,0.96 l 8.28,-36.25 z" /><path
         id="path292388"
         d="m 165.31,339.985 h 64.35 c -3.41,14.61 -16.54,25.54 -32.17,25.54 -15.64,0 -28.77,-10.93 -32.18,-25.54 z" /><path
         id="path292407"
         d="m 394.73,332.485 c 0,4.14 -3.36,7.5 -7.5,7.5 H 244.94 c -3.62,22.93 -23.52,40.54 -47.45,40.54 -23.94,0 -43.84,-17.61 -47.46,-40.54 H 7.75 c -4.15,0 -7.5,-3.36 -7.5,-7.5 0,-96.67 69.89,-177.31 161.8,-194.05 l 10.88,-47.65 c 0.78,-3.42 3.82,-5.83 7.31,-5.83 h 9.75 v -63 c 0,-4.15 3.35,-7.5 7.5,-7.5 4.14,0 7.5,3.35 7.5,7.5 v 63 h 9.74 c 3.49,0 6.53,2.41 7.31,5.83 l 10.88,47.65 c 91.91,16.74 161.81,97.38 161.81,194.05 z m -379.33,-7.5 h 364.17 c -3.95,-97.02 -84.11,-174.74 -182.08,-174.74 -97.98,0 -178.14,77.72 -182.09,174.74 z m 214.26,15 h -64.35 c 3.41,14.61 16.54,25.54 32.18,25.54 15.63,0 28.76,-10.93 32.17,-25.54 z m -12.63,-203.78 -8.28,-36.25 h -22.53 l -8.28,36.25 c 6.43,-0.63 12.95,-0.96 19.55,-0.96 6.59,0 13.11,0.33 19.54,0.96 z" /><path
         id="path292428"
         d="m 366.57,305.295 c 0.66,4.09 -2.13,7.94 -6.22,8.59 -0.4,0.07 -0.8,0.1 -1.19,0.1 -3.62,0 -6.81,-2.63 -7.4,-6.32 -0.38,-2.39 -0.83,-4.8 -1.32,-7.17 -0.85,-4.05 1.75,-8.02 5.81,-8.87 4.05,-0.84 8.03,1.75 8.87,5.81 0.54,2.59 1.03,5.24 1.45,7.86 z" /><path
         id="path292568"
         d="m 224.84,163.425 c 4.09,0.66 6.87,4.51 6.21,8.6 -0.59,3.68 -3.78,6.3 -7.39,6.3 -0.4,0 -0.8,-0.03 -1.21,-0.09 -8.19,-1.32 -16.59,-1.99 -24.96,-1.99 -4.15,0 -7.5,-3.36 -7.5,-7.5 0,-4.15 3.35,-7.5 7.5,-7.5 9.16,0 18.37,0.73 27.35,2.18 z" /></symbol></defs><sodipodi:namedview
     id="namedview238594"
     pagecolor="#000000"
     bordercolor="#666666"
     borderopacity="1.0"
     inkscape:showpageshadow="2"
     inkscape:pageopacity="0.0"
     inkscape:pagecheckerboard="0"
     inkscape:deskcolor="#d1d1d1"
     showgrid="false"
     inkscape:zoom="0.74312563"
     inkscape:cx="287.30001"
     inkscape:cy="313.54052"
     inkscape:window-width="1920"
     inkscape:window-height="987"
     inkscape:window-x="-8"
     inkscape:window-y="-8"
     inkscape:window-maximized="1"
     inkscape:current-layer="icons" /><g
     style="fill:#4d4d4d;fill-opacity:1;stroke-width:1;stroke-linecap:square;stroke-linejoin:miter;stroke-miterlimit:10;stroke-dasharray:none;stroke-dashoffset:0"
     id="g269881"
     transform="rotate(90,503.09516,486.79653)"><g
       transform="translate(44.429687,62.273132)"
       id="g237971"
       style="fill:#4d4d4d;fill-opacity:1"><path
         d="M 647.7027,10 V 115.01826 H 473.5 V 10 Z M 680,10 V 115.01826 H 655.7027 V 10 Z M 159.50874,9.9997559 345.5,9.9999942 v 0 V 298.4837 H 10 V 159.50873 l 5.682766,-0.27918 15.531696,-2.30391 15.231102,-3.81518 14.783806,-5.28974 14.194115,-6.71331 13.467766,-8.07227 12.611689,-9.35348 11.63416,-10.54458 10.54459,-11.63416 9.35347,-12.611692 8.07226,-13.467766 6.71332,-14.194119 5.28972,-14.783809 3.8152,-15.231102 2.30391,-15.531697 z M 465.5,10 v 108.21291 312.99998 h -112 v -128 V 10 Z M 680,123.01826 V 431.21289 H 473.5 V 123.01826 Z M 345.5,306.4837 V 435.21289 787.5 H 10 V 306.4837 Z M 680,439.21289 V 787.5 H 353.5 V 439.21289 Z M 140.49127,-10 l -1.1654,23.722394 -2.01592,13.590234 -3.33829,13.327215 -4.62852,12.935833 -5.87415,12.419853 -7.06323,11.784294 -8.18429,11.035233 -9.226505,10.179886 -10.179886,9.226518 -11.035233,8.18429 -11.784294,7.06323 -12.419849,5.87416 -12.935833,4.62851 -13.327214,3.33829 -13.590235,2.01593 L -10,140.49127 V 302 812.5 H 700 V 435 119 -10 Z"
         id="path237967"
         style="fill:#4d4d4d;fill-opacity:1;stroke:none;stroke-opacity:1" /></g></g><g
     id="icons"><g
       transform="matrix(0.15714393,0,0,0.15714393,829.50916,406.24071)"
       id="light.light_1"><rect
         style="fill:#434343;fill-opacity:1;stroke-width:3.79689;stroke-linejoin:round"
         id="rect265029"
         width="460"
         height="420"
         rx="40"
         x="-30.64348"
         y="-11.113153" /><g
         id="g265043"
         style="fill:#898989;fill-opacity:1"><path
           style="fill:#898989;fill-opacity:1"
           d="m 208.75,99.955 8.28,36.25 c -6.43,-0.63 -12.95,-0.96 -19.54,-0.96 -6.6,0 -13.12,0.33 -19.55,0.96 l 8.28,-36.25 z"
           id="path265031" /><path
           style="fill:#898989;fill-opacity:1"
           d="m 165.31,339.985 h 64.35 c -3.41,14.61 -16.54,25.54 -32.17,25.54 -15.64,0 -28.77,-10.93 -32.18,-25.54 z"
           id="path265033" /><path
           d="m 394.73,332.485 c 0,4.14 -3.36,7.5 -7.5,7.5 H 244.94 c -3.62,22.93 -23.52,40.54 -47.45,40.54 -23.94,0 -43.84,-17.61 -47.46,-40.54 H 7.75 c -4.15,0 -7.5,-3.36 -7.5,-7.5 0,-96.67 69.89,-177.31 161.8,-194.05 l 10.88,-47.65 c 0.78,-3.42 3.82,-5.83 7.31,-5.83 h 9.75 v -63 c 0,-4.15 3.35,-7.5 7.5,-7.5 4.14,0 7.5,3.35 7.5,7.5 v 63 h 9.74 c 3.49,0 6.53,2.41 7.31,5.83 l 10.88,47.65 c 91.91,16.74 161.81,97.38 161.81,194.05 z m -379.33,-7.5 h 364.17 c -3.95,-97.02 -84.11,-174.74 -182.08,-174.74 -97.98,0 -178.14,77.72 -182.09,174.74 z m 214.26,15 h -64.35 c 3.41,14.61 16.54,25.54 32.18,25.54 15.63,0 28.76,-10.93 32.17,-25.54 z m -12.63,-203.78 -8.28,-36.25 h -22.53 l -8.28,36.25 c 6.43,-0.63 12.95,-0.96 19.55,-0.96 6.59,0 13.11,0.33 19.54,0.96 z"
           id="path265035"
           style="fill:#898989;fill-opacity:1" /><path
           d="m 366.57,305.295 c 0.66,4.09 -2.13,7.94 -6.22,8.59 -0.4,0.07 -0.8,0.1 -1.19,0.1 -3.62,0 -6.81,-2.63 -7.4,-6.32 -0.38,-2.39 -0.83,-4.8 -1.32,-7.17 -0.85,-4.05 1.75,-8.02 5.81,-8.87 4.05,-0.84 8.03,1.75 8.87,5.81 0.54,2.59 1.03,5.24 1.45,7.86 z"
           id="path265037"
           style="fill:#898989;fill-opacity:1" /><path
           d="m 358.52,274.205 c 1.41,3.89 -0.6,8.2 -4.49,9.61 -0.85,0.31 -1.71,0.45 -2.56,0.45 -3.07,0 -5.95,-1.89 -7.05,-4.94 -15.58,-42.93 -49.01,-76.83 -91.73,-93.02 -3.87,-1.46 -5.82,-5.79 -4.35,-9.67 1.47,-3.87 5.79,-5.82 9.67,-4.35 46.8,17.74 83.44,54.89 100.51,101.92 z"
           id="path265039"
           style="fill:#898989;fill-opacity:1" /><path
           d="m 224.84,163.425 c 4.09,0.66 6.87,4.51 6.21,8.6 -0.59,3.68 -3.78,6.3 -7.39,6.3 -0.4,0 -0.8,-0.03 -1.21,-0.09 -8.19,-1.32 -16.59,-1.99 -24.96,-1.99 -4.15,0 -7.5,-3.36 -7.5,-7.5 0,-4.15 3.35,-7.5 7.5,-7.5 9.16,0 18.37,0.73 27.35,2.18 z"
           id="path265041"
           style="fill:#898989;fill-opacity:1" /></g></g><g
       transform="matrix(0.1066363,0,0,0.1066363,844.3462,523.05912)"
       id="light.light_2"><rect
         style="fill:#434343;fill-opacity:1;stroke-width:3.79689;stroke-linejoin:round"
         id="rect264285"
         width="460"
         height="420"
         rx="40"
         x="-30.64348"
         y="-11.113153" /><g
         id="g264299"
         style="fill:#898989;fill-opacity:1"><use
           id="use292620"
           xlink:href="#icon.lamp"
           href="#icon.lamp" /></g></g><g
       transform="matrix(0.15714393,0,0,0.15714393,720.61471,622.61538)"
       id="light.light_3"><rect
         style="fill:#434343;fill-opacity:1;stroke-width:3.79689;stroke-linejoin:round"
         id="rect264267"
         width="460"
         height="420"
         rx="40"
         x="-30.64348"
         y="-11.113153" /><g
         id="g267499"
         style="fill:#898989;fill-opacity:1"><path
           d="m 208.75,99.955 8.28,36.25 c -6.43,-0.63 -12.95,-0.96 -19.54,-0.96 -6.6,0 -13.12,0.33 -19.55,0.96 l 8.28,-36.25 z"
           id="path264269" /><path
           style="fill:#898989;fill-opacity:1"
           d="m 165.31,339.985 h 64.35 c -3.41,14.61 -16.54,25.54 -32.17,25.54 -15.64,0 -28.77,-10.93 -32.18,-25.54 z"
           id="path264271" /><path
           d="m 394.73,332.485 c 0,4.14 -3.36,7.5 -7.5,7.5 H 244.94 c -3.62,22.93 -23.52,40.54 -47.45,40.54 -23.94,0 -43.84,-17.61 -47.46,-40.54 H 7.75 c -4.15,0 -7.5,-3.36 -7.5,-7.5 0,-96.67 69.89,-177.31 161.8,-194.05 l 10.88,-47.65 c 0.78,-3.42 3.82,-5.83 7.31,-5.83 h 9.75 v -63 c 0,-4.15 3.35,-7.5 7.5,-7.5 4.14,0 7.5,3.35 7.5,7.5 v 63 h 9.74 c 3.49,0 6.53,2.41 7.31,5.83 l 10.88,47.65 c 91.91,16.74 161.81,97.38 161.81,194.05 z m -379.33,-7.5 h 364.17 c -3.95,-97.02 -84.11,-174.74 -182.08,-174.74 -97.98,0 -178.14,77.72 -182.09,174.74 z m 214.26,15 h -64.35 c 3.41,14.61 16.54,25.54 32.18,25.54 15.63,0 28.76,-10.93 32.17,-25.54 z m -12.63,-203.78 -8.28,-36.25 h -22.53 l -8.28,36.25 c 6.43,-0.63 12.95,-0.96 19.55,-0.96 6.59,0 13.11,0.33 19.54,0.96 z"
           id="path264273"
           style="fill:#898989;fill-opacity:1" /><path
           d="m 366.57,305.295 c 0.66,4.09 -2.13,7.94 -6.22,8.59 -0.4,0.07 -0.8,0.1 -1.19,0.1 -3.62,0 -6.81,-2.63 -7.4,-6.32 -0.38,-2.39 -0.83,-4.8 -1.32,-7.17 -0.85,-4.05 1.75,-8.02 5.81,-8.87 4.05,-0.84 8.03,1.75 8.87,5.81 0.54,2.59 1.03,5.24 1.45,7.86 z"
           id="path264275"
           style="fill:#898989;fill-opacity:1" /><path
           d="m 358.52,274.205 c 1.41,3.89 -0.6,8.2 -4.49,9.61 -0.85,0.31 -1.71,0.45 -2.56,0.45 -3.07,0 -5.95,-1.89 -7.05,-4.94 -15.58,-42.93 -49.01,-76.83 -91.73,-93.02 -3.87,-1.46 -5.82,-5.79 -4.35,-9.67 1.47,-3.87 5.79,-5.82 9.67,-4.35 46.8,17.74 83.44,54.89 100.51,101.92 z"
           id="path264277"
           style="fill:#898989;fill-opacity:1" /><path
           d="m 224.84,163.425 c 4.09,0.66 6.87,4.51 6.21,8.6 -0.59,3.68 -3.78,6.3 -7.39,6.3 -0.4,0 -0.8,-0.03 -1.21,-0.09 -8.19,-1.32 -16.59,-1.99 -24.96,-1.99 -4.15,0 -7.5,-3.36 -7.5,-7.5 0,-4.15 3.35,-7.5 7.5,-7.5 9.16,0 18.37,0.73 27.35,2.18 z"
           id="path264279"
           style="fill:#898989;fill-opacity:1" /></g></g><g
       transform="matrix(0.15714393,0,0,0.15714393,286.45114,434.52497)"
       id="light.light_4"><rect
         id="rect260261"
         width="460"
         height="420"
         rx="40"
         x="-30.64348"
         y="-11.113153"
         style="fill:#434343;fill-opacity:1;stroke-width:3.79689;stroke-linejoin:round" /><g
         id="g267501"
         style="fill:#898989;fill-opacity:1"><path
           style="fill:#898989;fill-opacity:1"
           d="m 208.75,99.955 8.28,36.25 c -6.43,-0.63 -12.95,-0.96 -19.54,-0.96 -6.6,0 -13.12,0.33 -19.55,0.96 l 8.28,-36.25 z"
           id="path258238" /><path
           style="fill:#898989;fill-opacity:1"
           d="m 165.31,339.985 h 64.35 c -3.41,14.61 -16.54,25.54 -32.17,25.54 -15.64,0 -28.77,-10.93 -32.18,-25.54 z"
           id="path258240" /><path
           d="m 394.73,332.485 c 0,4.14 -3.36,7.5 -7.5,7.5 H 244.94 c -3.62,22.93 -23.52,40.54 -47.45,40.54 -23.94,0 -43.84,-17.61 -47.46,-40.54 H 7.75 c -4.15,0 -7.5,-3.36 -7.5,-7.5 0,-96.67 69.89,-177.31 161.8,-194.05 l 10.88,-47.65 c 0.78,-3.42 3.82,-5.83 7.31,-5.83 h 9.75 v -63 c 0,-4.15 3.35,-7.5 7.5,-7.5 4.14,0 7.5,3.35 7.5,7.5 v 63 h 9.74 c 3.49,0 6.53,2.41 7.31,5.83 l 10.88,47.65 c 91.91,16.74 161.81,97.38 161.81,194.05 z m -379.33,-7.5 h 364.17 c -3.95,-97.02 -84.11,-174.74 -182.08,-174.74 -97.98,0 -178.14,77.72 -182.09,174.74 z m 214.26,15 h -64.35 c 3.41,14.61 16.54,25.54 32.18,25.54 15.63,0 28.76,-10.93 32.17,-25.54 z m -12.63,-203.78 -8.28,-36.25 h -22.53 l -8.28,36.25 c 6.43,-0.63 12.95,-0.96 19.55,-0.96 6.59,0 13.11,0.33 19.54,0.96 z"
           id="path258242"
           style="fill:#898989;fill-opacity:1" /><path
           d="m 366.57,305.295 c 0.66,4.09 -2.13,7.94 -6.22,8.59 -0.4,0.07 -0.8,0.1 -1.19,0.1 -3.62,0 -6.81,-2.63 -7.4,-6.32 -0.38,-2.39 -0.83,-4.8 -1.32,-7.17 -0.85,-4.05 1.75,-8.02 5.81,-8.87 4.05,-0.84 8.03,1.75 8.87,5.81 0.54,2.59 1.03,5.24 1.45,7.86 z"
           id="path258244"
           style="fill:#898989;fill-opacity:1" /><path
           d="m 358.52,274.205 c 1.41,3.89 -0.6,8.2 -4.49,9.61 -0.85,0.31 -1.71,0.45 -2.56,0.45 -3.07,0 -5.95,-1.89 -7.05,-4.94 -15.58,-42.93 -49.01,-76.83 -91.73,-93.02 -3.87,-1.46 -5.82,-5.79 -4.35,-9.67 1.47,-3.87 5.79,-5.82 9.67,-4.35 46.8,17.74 83.44,54.89 100.51,101.92 z"
           id="path258246"
           style="fill:#898989;fill-opacity:1" /><path
           d="m 224.84,163.425 c 4.09,0.66 6.87,4.51 6.21,8.6 -0.59,3.68 -3.78,6.3 -7.39,6.3 -0.4,0 -0.8,-0.03 -1.21,-0.09 -8.19,-1.32 -16.59,-1.99 -24.96,-1.99 -4.15,0 -7.5,-3.36 -7.5,-7.5 0,-4.15 3.35,-7.5 7.5,-7.5 9.16,0 18.37,0.73 27.35,2.18 z"
           id="path258248"
           style="fill:#898989;fill-opacity:1" /></g></g><g
       transform="matrix(0.15714393,0,0,0.15714393,345.84813,85.214228)"
       id="light.light_5_1"><rect
         style="fill:#434343;fill-opacity:1;stroke-width:3.79689;stroke-linejoin:round"
         id="rect265829"
         width="460"
         height="420"
         rx="40"
         x="-30.64348"
         y="-11.113153" /><g
         id="g265843"
         style="fill:#898989;fill-opacity:1"><path
           style="fill:#898989;fill-opacity:1"
           d="m 208.75,99.955 8.28,36.25 c -6.43,-0.63 -12.95,-0.96 -19.54,-0.96 -6.6,0 -13.12,0.33 -19.55,0.96 l 8.28,-36.25 z"
           id="path265831" /><path
           style="fill:#898989;fill-opacity:1"
           d="m 165.31,339.985 h 64.35 c -3.41,14.61 -16.54,25.54 -32.17,25.54 -15.64,0 -28.77,-10.93 -32.18,-25.54 z"
           id="path265833" /><path
           d="m 394.73,332.485 c 0,4.14 -3.36,7.5 -7.5,7.5 H 244.94 c -3.62,22.93 -23.52,40.54 -47.45,40.54 -23.94,0 -43.84,-17.61 -47.46,-40.54 H 7.75 c -4.15,0 -7.5,-3.36 -7.5,-7.5 0,-96.67 69.89,-177.31 161.8,-194.05 l 10.88,-47.65 c 0.78,-3.42 3.82,-5.83 7.31,-5.83 h 9.75 v -63 c 0,-4.15 3.35,-7.5 7.5,-7.5 4.14,0 7.5,3.35 7.5,7.5 v 63 h 9.74 c 3.49,0 6.53,2.41 7.31,5.83 l 10.88,47.65 c 91.91,16.74 161.81,97.38 161.81,194.05 z m -379.33,-7.5 h 364.17 c -3.95,-97.02 -84.11,-174.74 -182.08,-174.74 -97.98,0 -178.14,77.72 -182.09,174.74 z m 214.26,15 h -64.35 c 3.41,14.61 16.54,25.54 32.18,25.54 15.63,0 28.76,-10.93 32.17,-25.54 z m -12.63,-203.78 -8.28,-36.25 h -22.53 l -8.28,36.25 c 6.43,-0.63 12.95,-0.96 19.55,-0.96 6.59,0 13.11,0.33 19.54,0.96 z"
           id="path265835"
           style="fill:#898989;fill-opacity:1" /><path
           d="m 366.57,305.295 c 0.66,4.09 -2.13,7.94 -6.22,8.59 -0.4,0.07 -0.8,0.1 -1.19,0.1 -3.62,0 -6.81,-2.63 -7.4,-6.32 -0.38,-2.39 -0.83,-4.8 -1.32,-7.17 -0.85,-4.05 1.75,-8.02 5.81,-8.87 4.05,-0.84 8.03,1.75 8.87,5.81 0.54,2.59 1.03,5.24 1.45,7.86 z"
           id="path265837"
           style="fill:#898989;fill-opacity:1" /><path
           d="m 358.52,274.205 c 1.41,3.89 -0.6,8.2 -4.49,9.61 -0.85,0.31 -1.71,0.45 -2.56,0.45 -3.07,0 -5.95,-1.89 -7.05,-4.94 -15.58,-42.93 -49.01,-76.83 -91.73,-93.02 -3.87,-1.46 -5.82,-5.79 -4.35,-9.67 1.47,-3.87 5.79,-5.82 9.67,-4.35 46.8,17.74 83.44,54.89 100.51,101.92 z"
           id="path265839"
           style="fill:#898989;fill-opacity:1" /><path
           d="m 224.84,163.425 c 4.09,0.66 6.87,4.51 6.21,8.6 -0.59,3.68 -3.78,6.3 -7.39,6.3 -0.4,0 -0.8,-0.03 -1.21,-0.09 -8.19,-1.32 -16.59,-1.99 -24.96,-1.99 -4.15,0 -7.5,-3.36 -7.5,-7.5 0,-4.15 3.35,-7.5 7.5,-7.5 9.16,0 18.37,0.73 27.35,2.18 z"
           id="path265841"
           style="fill:#898989;fill-opacity:1" /></g></g><g
       transform="matrix(0.1066363,0,0,0.1066363,441.88112,315.16973)"
       id="light.light_5_2"><rect
         style="fill:#434343;fill-opacity:1;stroke-width:3.79689;stroke-linejoin:round"
         id="rect265811"
         width="460"
         height="420"
         rx="40"
         x="-30.64348"
         y="-11.113153" /><g
         id="g265825"
         style="fill:#898989;fill-opacity:1"><path
           style="fill:#898989;fill-opacity:1"
           d="m 208.75,99.955 8.28,36.25 c -6.43,-0.63 -12.95,-0.96 -19.54,-0.96 -6.6,0 -13.12,0.33 -19.55,0.96 l 8.28,-36.25 z"
           id="path265813" /><path
           style="fill:#898989;fill-opacity:1"
           d="m 165.31,339.985 h 64.35 c -3.41,14.61 -16.54,25.54 -32.17,25.54 -15.64,0 -28.77,-10.93 -32.18,-25.54 z"
           id="path265815" /><path
           d="m 394.73,332.485 c 0,4.14 -3.36,7.5 -7.5,7.5 H 244.94 c -3.62,22.93 -23.52,40.54 -47.45,40.54 -23.94,0 -43.84,-17.61 -47.46,-40.54 H 7.75 c -4.15,0 -7.5,-3.36 -7.5,-7.5 0,-96.67 69.89,-177.31 161.8,-194.05 l 10.88,-47.65 c 0.78,-3.42 3.82,-5.83 7.31,-5.83 h 9.75 v -63 c 0,-4.15 3.35,-7.5 7.5,-7.5 4.14,0 7.5,3.35 7.5,7.5 v 63 h 9.74 c 3.49,0 6.53,2.41 7.31,5.83 l 10.88,47.65 c 91.91,16.74 161.81,97.38 161.81,194.05 z m -379.33,-7.5 h 364.17 c -3.95,-97.02 -84.11,-174.74 -182.08,-174.74 -97.98,0 -178.14,77.72 -182.09,174.74 z m 214.26,15 h -64.35 c 3.41,14.61 16.54,25.54 32.18,25.54 15.63,0 28.76,-10.93 32.17,-25.54 z m -12.63,-203.78 -8.28,-36.25 h -22.53 l -8.28,36.25 c 6.43,-0.63 12.95,-0.96 19.55,-0.96 6.59,0 13.11,0.33 19.54,0.96 z"
           id="path265817"
           style="fill:#898989;fill-opacity:1" /><path
           d="m 366.57,305.295 c 0.66,4.09 -2.13,7.94 -6.22,8.59 -0.4,0.07 -0.8,0.1 -1.19,0.1 -3.62,0 -6.81,-2.63 -7.4,-6.32 -0.38,-2.39 -0.83,-4.8 -1.32,-7.17 -0.85,-4.05 1.75,-8.02 5.81,-8.87 4.05,-0.84 8.03,1.75 8.87,5.81 0.54,2.59 1.03,5.24 1.45,7.86 z"
           id="path265819"
           style="fill:#898989;fill-opacity:1" /><path
           d="m 358.52,274.205 c 1.41,3.89 -0.6,8.2 -4.49,9.61 -0.85,0.31 -1.71,0.45 -2.56,0.45 -3.07,0 -5.95,-1.89 -7.05,-4.94 -15.58,-42.93 -49.01,-76.83 -91.73,-93.02 -3.87,-1.46 -5.82,-5.79 -4.35,-9.67 1.47,-3.87 5.79,-5.82 9.67,-4.35 46.8,17.74 83.44,54.89 100.51,101.92 z"
           id="path265821"
           style="fill:#898989;fill-opacity:1" /><path
           d="m 224.84,163.425 c 4.09,0.66 6.87,4.51 6.21,8.6 -0.59,3.68 -3.78,6.3 -7.39,6.3 -0.4,0 -0.8,-0.03 -1.21,-0.09 -8.19,-1.32 -16.59,-1.99 -24.96,-1.99 -4.15,0 -7.5,-3.36 -7.5,-7.5 0,-4.15 3.35,-7.5 7.5,-7.5 9.16,0 18.37,0.73 27.35,2.18 z"
           id="path265823"
           style="fill:#898989;fill-opacity:1" /></g></g><g
       transform="matrix(0.15714393,0,0,0.15714393,829.42212,277.42282)"
       id="light.light_6_1"><rect
         style="fill:#434343;fill-opacity:1;stroke-width:3.79689;stroke-linejoin:round"
         id="rect265047"
         width="460"
         height="420"
         rx="40"
         x="-30.64348"
         y="-11.113153" /><g
         id="g265061"
         style="fill:#898989;fill-opacity:1"><path
           style="fill:#898989;fill-opacity:1"
           d="m 208.75,99.955 8.28,36.25 c -6.43,-0.63 -12.95,-0.96 -19.54,-0.96 -6.6,0 -13.12,0.33 -19.55,0.96 l 8.28,-36.25 z"
           id="path265049" /><path
           style="fill:#898989;fill-opacity:1"
           d="m 165.31,339.985 h 64.35 c -3.41,14.61 -16.54,25.54 -32.17,25.54 -15.64,0 -28.77,-10.93 -32.18,-25.54 z"
           id="path265051" /><path
           d="m 394.73,332.485 c 0,4.14 -3.36,7.5 -7.5,7.5 H 244.94 c -3.62,22.93 -23.52,40.54 -47.45,40.54 -23.94,0 -43.84,-17.61 -47.46,-40.54 H 7.75 c -4.15,0 -7.5,-3.36 -7.5,-7.5 0,-96.67 69.89,-177.31 161.8,-194.05 l 10.88,-47.65 c 0.78,-3.42 3.82,-5.83 7.31,-5.83 h 9.75 v -63 c 0,-4.15 3.35,-7.5 7.5,-7.5 4.14,0 7.5,3.35 7.5,7.5 v 63 h 9.74 c 3.49,0 6.53,2.41 7.31,5.83 l 10.88,47.65 c 91.91,16.74 161.81,97.38 161.81,194.05 z m -379.33,-7.5 h 364.17 c -3.95,-97.02 -84.11,-174.74 -182.08,-174.74 -97.98,0 -178.14,77.72 -182.09,174.74 z m 214.26,15 h -64.35 c 3.41,14.61 16.54,25.54 32.18,25.54 15.63,0 28.76,-10.93 32.17,-25.54 z m -12.63,-203.78 -8.28,-36.25 h -22.53 l -8.28,36.25 c 6.43,-0.63 12.95,-0.96 19.55,-0.96 6.59,0 13.11,0.33 19.54,0.96 z"
           id="path265053"
           style="fill:#898989;fill-opacity:1" /><path
           d="m 366.57,305.295 c 0.66,4.09 -2.13,7.94 -6.22,8.59 -0.4,0.07 -0.8,0.1 -1.19,0.1 -3.62,0 -6.81,-2.63 -7.4,-6.32 -0.38,-2.39 -0.83,-4.8 -1.32,-7.17 -0.85,-4.05 1.75,-8.02 5.81,-8.87 4.05,-0.84 8.03,1.75 8.87,5.81 0.54,2.59 1.03,5.24 1.45,7.86 z"
           id="path265055"
           style="fill:#898989;fill-opacity:1" /><path
           d="m 358.52,274.205 c 1.41,3.89 -0.6,8.2 -4.49,9.61 -0.85,0.31 -1.71,0.45 -2.56,0.45 -3.07,0 -5.95,-1.89 -7.05,-4.94 -15.58,-42.93 -49.01,-76.83 -91.73,-93.02 -3.87,-1.46 -5.82,-5.79 -4.35,-9.67 1.47,-3.87 5.79,-5.82 9.67,-4.35 46.8,17.74 83.44,54.89 100.51,101.92 z"
           id="path265057"
           style="fill:#898989;fill-opacity:1" /><path
           d="m 224.84,163.425 c 4.09,0.66 6.87,4.51 6.21,8.6 -0.59,3.68 -3.78,6.3 -7.39,6.3 -0.4,0 -0.8,-0.03 -1.21,-0.09 -8.19,-1.32 -16.59,-1.99 -24.96,-1.99 -4.15,0 -7.5,-3.36 -7.5,-7.5 0,-4.15 3.35,-7.5 7.5,-7.5 9.16,0 18.37,0.73 27.35,2.18 z"
           id="path265059"
           style="fill:#898989;fill-opacity:1" /></g></g><g
       transform="matrix(0.1066363,0,0,0.1066363,649.78675,53.437402)"
       id="light.light_6_2"><rect
         style="fill:#434343;fill-opacity:1;stroke-width:3.79689;stroke-linejoin:round"
         id="rect296128"
         width="460"
         height="420"
         rx="40"
         x="-30.64348"
         y="-11.113153" /><g
         id="g296142"
         style="fill:#898989;fill-opacity:1"><path
           style="fill:#898989;fill-opacity:1"
           d="m 208.75,99.955 8.28,36.25 c -6.43,-0.63 -12.95,-0.96 -19.54,-0.96 -6.6,0 -13.12,0.33 -19.55,0.96 l 8.28,-36.25 z"
           id="path296130" /><path
           style="fill:#898989;fill-opacity:1"
           d="m 165.31,339.985 h 64.35 c -3.41,14.61 -16.54,25.54 -32.17,25.54 -15.64,0 -28.77,-10.93 -32.18,-25.54 z"
           id="path296132" /><path
           d="m 394.73,332.485 c 0,4.14 -3.36,7.5 -7.5,7.5 H 244.94 c -3.62,22.93 -23.52,40.54 -47.45,40.54 -23.94,0 -43.84,-17.61 -47.46,-40.54 H 7.75 c -4.15,0 -7.5,-3.36 -7.5,-7.5 0,-96.67 69.89,-177.31 161.8,-194.05 l 10.88,-47.65 c 0.78,-3.42 3.82,-5.83 7.31,-5.83 h 9.75 v -63 c 0,-4.15 3.35,-7.5 7.5,-7.5 4.14,0 7.5,3.35 7.5,7.5 v 63 h 9.74 c 3.49,0 6.53,2.41 7.31,5.83 l 10.88,47.65 c 91.91,16.74 161.81,97.38 161.81,194.05 z m -379.33,-7.5 h 364.17 c -3.95,-97.02 -84.11,-174.74 -182.08,-174.74 -97.98,0 -178.14,77.72 -182.09,174.74 z m 214.26,15 h -64.35 c 3.41,14.61 16.54,25.54 32.18,25.54 15.63,0 28.76,-10.93 32.17,-25.54 z m -12.63,-203.78 -8.28,-36.25 h -22.53 l -8.28,36.25 c 6.43,-0.63 12.95,-0.96 19.55,-0.96 6.59,0 13.11,0.33 19.54,0.96 z"
           id="path296134"
           style="fill:#898989;fill-opacity:1" /><path
           d="m 366.57,305.295 c 0.66,4.09 -2.13,7.94 -6.22,8.59 -0.4,0.07 -0.8,0.1 -1.19,0.1 -3.62,0 -6.81,-2.63 -7.4,-6.32 -0.38,-2.39 -0.83,-4.8 -1.32,-7.17 -0.85,-4.05 1.75,-8.02 5.81,-8.87 4.05,-0.84 8.03,1.75 8.87,5.81 0.54,2.59 1.03,5.24 1.45,7.86 z"
           id="path296136"
           style="fill:#898989;fill-opacity:1" /><path
           d="m 358.52,274.205 c 1.41,3.89 -0.6,8.2 -4.49,9.61 -0.85,0.31 -1.71,0.45 -2.56,0.45 -3.07,0 -5.95,-1.89 -7.05,-4.94 -15.58,-42.93 -49.01,-76.83 -91.73,-93.02 -3.87,-1.46 -5.82,-5.79 -4.35,-9.67 1.47,-3.87 5.79,-5.82 9.67,-4.35 46.8,17.74 83.44,54.89 100.51,101.92 z"
           id="path296138"
           style="fill:#898989;fill-opacity:1" /><path
           d="m 224.84,163.425 c 4.09,0.66 6.87,4.51 6.21,8.6 -0.59,3.68 -3.78,6.3 -7.39,6.3 -0.4,0 -0.8,-0.03 -1.21,-0.09 -8.19,-1.32 -16.59,-1.99 -24.96,-1.99 -4.15,0 -7.5,-3.36 -7.5,-7.5 0,-4.15 3.35,-7.5 7.5,-7.5 9.16,0 18.37,0.73 27.35,2.18 z"
           id="path296140"
           style="fill:#898989;fill-opacity:1" /></g></g><g
       transform="matrix(0.1066363,0,0,0.1066363,549.22234,556.44998)"
       id="binary_sensor.water_3"><rect
         style="fill:#434343;fill-opacity:1;stroke-width:3.79689;stroke-linejoin:round"
         id="rect294979"
         width="460"
         height="420"
         rx="40"
         x="-30.64348"
         y="-11.113153" /><g
         id="g782"
         style="fill:#898989;fill-opacity:1"
         transform="matrix(11.950688,0,0,11.950688,60.022093,52.321152)"><use
           id="use294981"
           xlink:href="#icon.water"
           href="#icon.water" /></g></g><g
       transform="matrix(0.1066363,0,0,0.1066363,730.96469,558.54692)"
       id="binary_sensor.motion_3"><rect
         style="fill:#434343;fill-opacity:1;stroke-width:3.79689;stroke-linejoin:round"
         id="rect294971"
         width="460"
         height="420"
         rx="40"
         x="-30.64348"
         y="-11.113153" /><g
         id="g396"
         style="fill:#898989;fill-opacity:1"><use
           id="use294973"
           xlink:href="#icon.motion"
           href="#icon.motion" /></g></g><g
       transform="matrix(0.1066363,0,0,0.1066363,839.96716,213.44191)"
       id="binary_sensor.motion_6"><rect
         style="fill:#434343;fill-opacity:1;stroke-width:3.79689;stroke-linejoin:round"
         id="rect292327"
         width="460"
         height="420"
         rx="40"
         x="-30.64348"
         y="-11.113153" /><g
         id="g394"
         style="fill:#898989;fill-opacity:1"><use
           id="use292329"
           xlink:href="#icon.motion"
           href="#icon.motion" /></g></g><g
       id="group.sensors_2"
       transform="matrix(0.97026948,0,0,0.97026948,662.13145,11.944275)"
       style="fill:#898989;fill-opacity:1"><rect
         id="rect292974"
         width="85"
         height="77.668411"
         style="fill:#434343;fill-opacity:1;stroke-width:4.31991;stroke-linejoin:round"
         x="165.97792"
         y="596.51917"
         rx="6" /><g
         id="g292978"
         transform="matrix(0.75482826,0,0,0.75482826,169.22237,603.82258)"
         style="fill:#44739e;fill-opacity:1"><use
           id="use292976"
           href="#icon.voc"
           xlink:href="#icon.voc"
           style="fill:#44739e;fill-opacity:1" /></g><g
         id="g292982"
         transform="translate(167.01582,623.73643)"
         style="fill:#cf9939;fill-opacity:1"><use
           id="use292980"
           href="#icon.temperature"
           xlink:href="#icon.temperature" /></g><g
         id="g292986"
         style="fill:#c043c1;fill-opacity:1"
         transform="translate(167.01582,645.61166)"><use
           id="use292984"
           href="#icon.humidity"
           xlink:href="#icon.humidity" /></g><text
         xml:space="preserve"
         style="font-style:normal;font-variant:normal;font-weight:normal;font-stretch:normal;font-size:18.6667px;line-height:1.25;font-family:Tahoma;-inkscape-font-specification:'Tahoma, Normal';font-variant-ligatures:normal;font-variant-caps:normal;font-variant-numeric:normal;font-variant-east-asian:normal"
         x="189.65022"
         y="641.99969"
         id="sensor.temperature_2"><tspan
           sodipodi:role="line"
           id="tspan292988"
           x="189.65022"
           y="641.99969">22.3째C</tspan></text><text
         xml:space="preserve"
         style="font-style:normal;font-variant:normal;font-weight:normal;font-stretch:normal;font-size:18.6667px;line-height:1.25;font-family:Tahoma;-inkscape-font-specification:'Tahoma, Normal';font-variant-ligatures:normal;font-variant-caps:normal;font-variant-numeric:normal;font-variant-east-asian:normal"
         x="190.07089"
         y="620.12445"
         id="sensor.voc_2"><tspan
           sodipodi:role="line"
           id="tspan292992"
           x="190.07089"
           y="620.12445">634</tspan></text><text
         xml:space="preserve"
         style="font-style:normal;font-variant:normal;font-weight:normal;font-stretch:normal;font-size:18.6667px;line-height:1.25;font-family:Tahoma;-inkscape-font-specification:'Tahoma, Normal';font-variant-ligatures:normal;font-variant-caps:normal;font-variant-numeric:normal;font-variant-east-asian:normal"
         x="189.40022"
         y="663.79291"
         id="sensor.humidity_2"><tspan
           sodipodi:role="line"
           id="tspan292996"
           x="189.40022"
           y="663.79291">37.2%</tspan></text></g><g
       id="group.sensors_3"
       transform="matrix(1.1885618,0,0,1.1885618,321.78878,-113.34049)"
       style="fill:#898989;fill-opacity:1"><rect
         id="rect279902"
         width="85"
         height="57.654083"
         style="fill:#434343;fill-opacity:1;stroke-width:3.72192;stroke-linejoin:round"
         x="165.97792"
         y="616.53351"
         rx="6" /><g
         id="g289809"
         transform="translate(167.01582,623.73643)"
         style="fill:#cf9939;fill-opacity:1"><use
           id="use289807"
           href="#icon.temperature"
           xlink:href="#icon.temperature" /></g><g
         id="g279916"
         style="fill:#c043c1;fill-opacity:1"
         transform="translate(167.01582,645.61166)"><use
           id="use289059"
           href="#icon.humidity"
           xlink:href="#icon.humidity" /></g><text
         xml:space="preserve"
         style="font-style:normal;font-variant:normal;font-weight:normal;font-stretch:normal;font-size:18.6667px;line-height:1.25;font-family:Tahoma;-inkscape-font-specification:'Tahoma, Normal';font-variant-ligatures:normal;font-variant-caps:normal;font-variant-numeric:normal;font-variant-east-asian:normal"
         x="189.65022"
         y="641.99969"
         id="sensor.temperature_3"><tspan
           sodipodi:role="line"
           id="tspan279918"
           x="189.65022"
           y="641.99969">23.8째C</tspan></text><text
         xml:space="preserve"
         style="font-style:normal;font-variant:normal;font-weight:normal;font-stretch:normal;font-size:18.6667px;line-height:1.25;font-family:Tahoma;-inkscape-font-specification:'Tahoma, Normal';font-variant-ligatures:normal;font-variant-caps:normal;font-variant-numeric:normal;font-variant-east-asian:normal"
         x="189.40022"
         y="663.79291"
         id="sensor.humidity_3"><tspan
           sodipodi:role="line"
           id="tspan279922"
           x="189.40022"
           y="663.79291">58.1%</tspan></text></g><g
       id="group.sensors_4"
       transform="matrix(1.1885618,0,0,1.1885618,-34.573439,-113.31118)"
       style="fill:#898989;fill-opacity:1"><rect
         id="rect292946"
         width="85"
         height="77.668411"
         style="fill:#434343;fill-opacity:1;stroke-width:4.31991;stroke-linejoin:round"
         x="165.97792"
         y="596.51917"
         rx="6" /><g
         id="g292950"
         transform="translate(167.01582,601.8612)"
         style="fill:#44739e;fill-opacity:1"><use
           id="use292948"
           href="#icon.co2"
           xlink:href="#icon.co2"
           style="fill:#44739e;fill-opacity:1" /></g><g
         id="g292954"
         transform="translate(167.01582,623.73643)"
         style="fill:#cf9939;fill-opacity:1"><use
           id="use292952"
           href="#icon.temperature"
           xlink:href="#icon.temperature" /></g><g
         id="g292958"
         style="fill:#c043c1;fill-opacity:1"
         transform="translate(167.01582,645.61166)"><use
           id="use292956"
           href="#icon.humidity"
           xlink:href="#icon.humidity" /></g><text
         xml:space="preserve"
         style="font-style:normal;font-variant:normal;font-weight:normal;font-stretch:normal;font-size:18.6667px;line-height:1.25;font-family:Tahoma;-inkscape-font-specification:'Tahoma, Normal';font-variant-ligatures:normal;font-variant-caps:normal;font-variant-numeric:normal;font-variant-east-asian:normal"
         x="189.65022"
         y="641.99969"
         id="sensor.temperature_4"><tspan
           sodipodi:role="line"
           id="tspan292960"
           x="189.65022"
           y="641.99969">23.8째C</tspan></text><text
         xml:space="preserve"
         style="font-style:normal;font-variant:normal;font-weight:normal;font-stretch:normal;font-size:18.6667px;line-height:1.25;font-family:Tahoma;-inkscape-font-specification:'Tahoma, Normal';font-variant-ligatures:normal;font-variant-caps:normal;font-variant-numeric:normal;font-variant-east-asian:normal"
         x="190.07089"
         y="620.12445"
         id="sensor.co2_4"><tspan
           sodipodi:role="line"
           id="tspan292964"
           x="190.07089"
           y="620.12445">1204</tspan></text><text
         xml:space="preserve"
         style="font-style:normal;font-variant:normal;font-weight:normal;font-stretch:normal;font-size:18.6667px;line-height:1.25;font-family:Tahoma;-inkscape-font-specification:'Tahoma, Normal';font-variant-ligatures:normal;font-variant-caps:normal;font-variant-numeric:normal;font-variant-east-asian:normal"
         x="189.40022"
         y="663.79291"
         id="sensor.humidity_4"><tspan
           sodipodi:role="line"
           id="tspan292968"
           x="189.40022"
           y="663.79291">47.3%</tspan></text></g><g
       id="group.sensors_6"
       transform="matrix(1.1885618,0,0,1.1885618,449.59897,-445.02903)"
       style="fill:#898989;fill-opacity:1"><rect
         id="rect293002"
         width="85"
         height="77.668411"
         style="fill:#434343;fill-opacity:1;stroke-width:4.31991;stroke-linejoin:round"
         x="165.97792"
         y="596.51917"
         rx="6" /><g
         id="g293006"
         transform="translate(167.01582,601.8612)"
         style="fill:#44739e;fill-opacity:1"><use
           id="use293004"
           href="#icon.co2"
           xlink:href="#icon.co2"
           style="fill:#44739e;fill-opacity:1" /></g><g
         id="g293010"
         transform="translate(167.01582,623.73643)"
         style="fill:#cf9939;fill-opacity:1"><use
           id="use293008"
           href="#icon.temperature"
           xlink:href="#icon.temperature" /></g><g
         id="g293014"
         style="fill:#c043c1;fill-opacity:1"
         transform="translate(167.01582,645.61166)"><use
           id="use293012"
           href="#icon.humidity"
           xlink:href="#icon.humidity" /></g><text
         xml:space="preserve"
         style="font-style:normal;font-variant:normal;font-weight:normal;font-stretch:normal;font-size:18.6667px;line-height:1.25;font-family:Tahoma;-inkscape-font-specification:'Tahoma, Normal';font-variant-ligatures:normal;font-variant-caps:normal;font-variant-numeric:normal;font-variant-east-asian:normal"
         x="189.65022"
         y="641.99969"
         id="sensor.temperature_6"><tspan
           sodipodi:role="line"
           id="tspan293016"
           x="189.65022"
           y="641.99969">24.2째C</tspan></text><text
         xml:space="preserve"
         style="font-style:normal;font-variant:normal;font-weight:normal;font-stretch:normal;font-size:18.6667px;line-height:1.25;font-family:Tahoma;-inkscape-font-specification:'Tahoma, Normal';font-variant-ligatures:normal;font-variant-caps:normal;font-variant-numeric:normal;font-variant-east-asian:normal"
         x="190.07089"
         y="620.12445"
         id="sensor.co2_6"><tspan
           sodipodi:role="line"
           id="tspan293020"
           x="190.07089"
           y="620.12445">705</tspan></text><text
         xml:space="preserve"
         style="font-style:normal;font-variant:normal;font-weight:normal;font-stretch:normal;font-size:18.6667px;line-height:1.25;font-family:Tahoma;-inkscape-font-specification:'Tahoma, Normal';font-variant-ligatures:normal;font-variant-caps:normal;font-variant-numeric:normal;font-variant-east-asian:normal"
         x="189.40022"
         y="663.79291"
         id="sensor.humidity_6"><tspan
           sodipodi:role="line"
           id="tspan293024"
           x="189.40022"
           y="663.79291">45.3%</tspan></text></g></g><g
     id="texts"
     style="fill:#898989;fill-opacity:1"><text
       xml:space="preserve"
       style="font-style:normal;font-variant:normal;font-weight:normal;font-stretch:normal;font-size:37.3333px;line-height:1.25;font-family:Tahoma;-inkscape-font-specification:'Tahoma, Normal';font-variant-ligatures:normal;font-variant-caps:normal;font-variant-numeric:normal;font-variant-east-asian:normal"
       x="231.93105"
       y="547.3006"
       id="text279879"><tspan
         sodipodi:role="line"
         id="tspan279877"
         x="231.93105"
         y="547.3006">BEDROOM</tspan></text><text
       xml:space="preserve"
       style="font-style:normal;font-variant:normal;font-weight:normal;font-stretch:normal;font-size:37.3333px;line-height:1.25;font-family:Tahoma;-inkscape-font-specification:'Tahoma, Normal';font-variant-ligatures:normal;font-variant-caps:normal;font-variant-numeric:normal;font-variant-east-asian:normal"
       x="274.35742"
       y="200.81828"
       id="text279956"><tspan
         sodipodi:role="line"
         id="tspan279954"
         x="274.35742"
         y="200.81828">LIVINGROOM</tspan></text><text
       xml:space="preserve"
       style="font-style:normal;font-variant:normal;font-weight:normal;font-stretch:normal;font-size:32px;line-height:1.25;font-family:Tahoma;-inkscape-font-specification:'Tahoma, Normal';font-variant-ligatures:normal;font-variant-caps:normal;font-variant-numeric:normal;font-variant-east-asian:normal"
       x="668.08246"
       y="203.13622"
       id="text279896"><tspan
         sodipodi:role="line"
         id="tspan279894"
         x="668.08246"
         y="203.13622">KITCHEN</tspan></text><text
       xml:space="preserve"
       style="font-style:normal;font-variant:normal;font-weight:normal;font-stretch:normal;font-size:32px;line-height:1.25;font-family:Tahoma;-inkscape-font-specification:'Tahoma, Normal';font-variant-ligatures:normal;font-variant-caps:normal;font-variant-numeric:normal;font-variant-east-asian:normal"
       x="579.82764"
       y="541.15851"
       id="text279900"><tspan
         sodipodi:role="line"
         id="tspan279898"
         x="579.82764"
         y="541.15851">BATHROOM</tspan></text></g></svg>
