<?xml version="1.0" encoding="UTF-8" standalone="no"?>
<svg
   id="svg81818"
   width="1152"
   height="812"
   version="1.1"
   viewBox="0 0 1152 812"
   xml:space="preserve"
   sodipodi:docname="lights.svg"
   inkscape:version="1.2.1 (9c6d41e410, 2022-07-14)"
   xmlns:inkscape="http://www.inkscape.org/namespaces/inkscape"
   xmlns:sodipodi="http://sodipodi.sourceforge.net/DTD/sodipodi-0.dtd"
   xmlns:xlink="http://www.w3.org/1999/xlink"
   xmlns="http://www.w3.org/2000/svg"
   xmlns:svg="http://www.w3.org/2000/svg"><defs
     id="defs204149" /><sodipodi:namedview
     id="namedview204147"
     pagecolor="#ffffff"
     bordercolor="#666666"
     borderopacity="1.0"
     inkscape:showpageshadow="2"
     inkscape:pageopacity="0.0"
     inkscape:pagecheckerboard="0"
     inkscape:deskcolor="#d1d1d1"
     showgrid="false"
     inkscape:window-x="-8"
     inkscape:window-y="-8"
     inkscape:window-maximized="1"
     inkscape:current-layer="svg81818"
     inkscape:zoom="1.4010417"
     inkscape:cx="856.50558"
     inkscape:cy="524.60967"
     inkscape:window-width="1920"
     inkscape:window-height="987" /><g
     id="background"><image
       id="main-bg"
       width="1152"
       height="812.16"
       href="/local/example/lights/light_night.png"
       preserveAspectRatio="none"
       xlink:href="lights/light_night.png" /><g
       id="light-overlays"><image
         id="light_overlay.light_1"
         width="1152"
         height="812.16"
         href="/local/example/lights/light_1.png"
         xlink:href="lights/light_1.png" /><image
         id="light_overlay.light_2"
         width="1152"
         height="812.16"
         href="/local/example/lights/light_2.png"
         xlink:href="lights/light_2.png" /><image
         id="light_overlay.light_3"
         width="1152"
         height="812.16"
         href="/local/example/lights/light_3.png"
         xlink:href="lights/light_3.png" /><image
         id="light_overlay.light_4"
         width="1152"
         height="812.16"
         href="/local/example/lights/light_4.png"
         xlink:href="lights/light_4.png" /><image
         id="light_overlay.light_5_1"
         width="1152"
         height="812.16"
         href="/local/example/lights/light_5_1.png"
         xlink:href="lights/light_5_1.png" /><image
         id="light_overlay.light_5_2"
         width="1152"
         height="812.16"
         href="/local/example/lights/light_5_2.png"
         xlink:href="lights/light_5_2.png" /><image
         id="light_overlay.light_6_1"
         width="1152"
         height="812.16"
         href="/local/example/lights/light_6_1.png"
         xlink:href="lights/light_6_1.png" /><image
         id="light_overlay.light_6_2"
         width="1152"
         height="812.16"
         href="/local/example/lights/light_6_2.png"
         xlink:href="lights/light_6_2.png" /></g></g><g
     id="areas"
     fill="none"
     transform="rotate(-90,486.10857,486.26555)"><path
       id="area.light_1"
       d="m 551.92186,629.57498 c 2.51922,150.60843 2.60257,301.19885 1.82922,451.81482 l -114.20437,0.1406 c -1.27636,-149.20495 -0.18578,-316.08824 0.14867,-452.31765 37.39754,1.04323 74.81891,0.44576 112.22648,0.36223 z"
       stroke="#0000ff"
       stroke-width="0.91093"
       sodipodi:nodetypes="ccccc" /><path
       id="area.light_2"
       d="m 202.96209,986.06776 c 76.06804,-0.37089 137.86314,0.37747 213.92906,-0.32469 1.94755,37.52133 0.42971,69.27053 -0.76953,106.77753 l -213.16424,-1.0854 z"
       stroke="#0000ff"
       stroke-width="0.76904"
       sodipodi:nodetypes="ccccc" /><path
       id="area.light_3"
       d="m 195.2752,957.24963 219.0787,1.62562 c 0.43834,-107.92076 2.20016,-215.82083 -0.15289,-323.71899 -73.49393,-2.58186 -146.96927,-2.29979 -220.48303,-1.72972 z"
       stroke="#0000ff"
       stroke-width="0.8691"
       sodipodi:nodetypes="ccccc" /><path
       id="area.light_4"
       d="m 195.26041,587.69406 352.13309,-1.64348 -0.56295,-341.80093 -351.07934,1.7356 z"
       stroke="#0000ff"
       stroke-width="0.99316"
       sodipodi:nodetypes="ccccc" /><path
       id="area.light_5_1"
       d="m 601.46643,266.57558 c 12.96662,-18.22363 295.47641,-9.32457 312.98164,-3.28054 6.95201,18.18457 6.49747,364.88339 2.25178,376.02397 -2.23891,11.03458 -198.01827,5.80574 -217.98784,-5.90016 -9.11552,-17.75615 5.23246,-115.12134 -10.35206,-139.13554 -11.32267,-8.84 -84.43214,-4.22195 -90.42304,-20.07341 -7.86803,-26.02883 -3.83286,-178.63106 3.52952,-207.63432 z"
       stroke="#0000ff"
       sodipodi:nodetypes="ccccccc" /><path
       id="area.light_5_2"
       d="m 574.26412,651.93197 c 11.60882,9.06201 64.37188,14.16165 92.3264,-5.926 16.07678,-25.27523 10.3199,-115.07181 -4.13172,-133.38457 -5.27096,-5.04033 -81.05563,-13.9969 -87.70387,-1.83318 -4.66646,19.47588 -8.67126,104.10871 -0.49081,141.14375 z"
       stroke="#0000ff"
       stroke-width="0.99316"
       sodipodi:nodetypes="ccccc" /><path
       id="area.light_6_1"
       d="m 921.92896,919.3658 -0.0253,-74.8507 -348.83698,-1.42751 c -2.67075,79.4488 2.41813,159.56921 0.54194,238.98671 l 185.73981,-0.6758 C 796.27815,949.70053 864.64856,925.22549 921.92896,919.3658 Z"
       stroke="#0000f0"
       sodipodi:nodetypes="cccccc" /><path
       id="area.light_6_2"
       d="m 929.46442,820.43189 -0.51363,-140.30666 -209.11439,1.06883 c -0.74659,0.13104 -1.60241,138.75319 -1.60241,138.75319 z"
       stroke="#0000ff"
       stroke-width="0.81807"
       sodipodi:nodetypes="ccccc" /></g></svg>
