<?xml version="1.0" encoding="UTF-8" standalone="no"?>
<!-- Created with Inkscape (http://www.inkscape.org/) -->

<svg
   width="1080"
   height="1920"
   viewBox="0 0  1080 1920"
   version="1.1"
   id="svg6099"
   style="fill:#000000;"
   inkscape:version="1.2.1 (9c6d41e410, 2022-07-14)"
   sodipodi:docname="master_mobile.svg"
   xml:space="preserve"
   xmlns:inkscape="http://www.inkscape.org/namespaces/inkscape"
   xmlns:sodipodi="http://sodipodi.sourceforge.net/DTD/sodipodi-0.dtd"
   xmlns="http://www.w3.org/2000/svg"
   xmlns:svg="http://www.w3.org/2000/svg"><defs
     id="defs6093" /><sodipodi:namedview
     id="base"
     pagecolor="#ffffff"
     bordercolor="#666666"
     borderopacity="1.0"
     inkscape:pageopacity="0"
     inkscape:pageshadow="2"
     inkscape:zoom="0.35"
     inkscape:cx="117.14286"
     inkscape:cy="1140"
     inkscape:document-units="px"
     inkscape:current-layer="master"
     showgrid="true"
     units="px"
     borderlayer="false"
     viewbox-height="800"
     showborder="true"
     inkscape:showpageshadow="true"
     inkscape:window-width="1920"
     inkscape:window-height="987"
     inkscape:window-x="-8"
     inkscape:window-y="-8"
     inkscape:window-maximized="1"
     inkscape:snap-global="true"
     showguides="false"
     objecttolerance="10000"
     guidetolerance="10000"
     inkscape:snap-bbox="true"
     inkscape:bbox-paths="true"
     inkscape:bbox-nodes="true"
     inkscape:snap-bbox-edge-midpoints="true"
     inkscape:snap-bbox-midpoints="true"
     inkscape:pagecheckerboard="0"
     inkscape:deskcolor="#d1d1d1" /><g
     id="master"><rect
       style="fill:#171f22;fill-opacity:1;fill-rule:nonzero;stroke:#666666;stroke-width:1;stroke-miterlimit:4;stroke-dasharray:none;stroke-opacity:1"
       id="sidebar-bg"
       width="1080"
       height="220"
       x="0"
       y="0" /><g
       id="g609"
       transform="translate(160)"><text
         style="font-style:normal;font-weight:normal;font-size:100px;line-height:1.25;font-family:tahoma;fill:#e2e4e5;fill-opacity:1;stroke:none;stroke-width:1;stroke-miterlimit:4;stroke-dasharray:none;stroke-opacity:1"
         x="210"
         y="100"
         id="sensor.time"
         dominant-baseline="middle"
         text-anchor="middle"><tspan
           style="stroke:none"
           id="tspan215977">08:25</tspan></text><text
         style="font-style:normal;font-weight:normal;font-size:40px;line-height:1.25;font-family:tahoma;fill:#484c4f;fill-opacity:1;stroke:none;stroke-width:0.5;stroke-dasharray:none;stroke-opacity:1"
         x="210"
         y="170"
         id="sensor.date"
         dominant-baseline="middle"
         text-anchor="middle"><tspan
           id="tspan196758"
           style="stroke:none">2022-09-14</tspan></text></g><g
       id="floorplan.button_home"
       transform="translate(160)"><rect
         ry="20"
         y="64"
         x="410"
         height="100"
         width="100"
         style="opacity:1;fill:#2f3334;fill-opacity:1;fill-rule:nonzero;stroke:#3f4344;stroke-width:1.6;stroke-miterlimit:4;stroke-dasharray:none;stroke-opacity:1"
         text-anchor="middle"
         class="button"
         id="rect160679" /><g
         id="icon-home"
         style="fill:#cccdcf;fill-opacity:1;stroke:#9b9b9b;stroke-width:0.6;stroke-dasharray:none;stroke-opacity:1"
         transform="translate(0,-4)"><path
           d="m 489.57729,115.48914 -8.681,-8.061 v -13.206 h -10 v 3.921 l -10,-9.286 -28.68,26.632 c -0.404,0.376 -0.428,1.009 -0.052,1.414 0.375,0.404 1.008,0.427 1.414,0.052 l 3.319,-3.082 v 33.349 h 16 16 16 v -33.35 l 3.319,3.082 c 0.192,0.179 0.437,0.267 0.681,0.267 0.269,0 0.536,-0.107 0.732,-0.319 0.376,-0.404 0.352,-1.037 -0.052,-1.413 z m -16.681,-19.267 h 6 v 9.349 l -6,-5.571 z m -18,49 v -21.063 c 0,-0.517 0.42,-0.937 0.937,-0.937 h 10.126 c 0.517,0 0.937,0.42 0.937,0.937 v 21.063 z m 28,0 h -14 v -21.063 c 0,-1.62 -1.317,-2.937 -2.937,-2.937 h -10.126 c -1.62,0 -2.937,1.317 -2.937,2.937 v 21.063 h -14 v -33.207 l 22,-20.429 14.28,13.26 5.72,5.311 v 0 l 2,1.857 z"
           id="path166983"
           style="stroke-width:0.6;stroke-dasharray:none" /></g></g><g
       id="floorplan.button_lights"
       class="button-inactive"
       transform="translate(160)"><rect
         ry="20"
         y="64"
         x="540"
         height="100"
         width="100"
         style="opacity:1;fill:#2f3334;fill-opacity:1;fill-rule:nonzero;stroke:#3f4344;stroke-width:1.6;stroke-miterlimit:4;stroke-dasharray:none;stroke-opacity:1"
         text-anchor="middle"
         class="button"
         id="rect166610" /><g
         id="g167879"
         style="fill:#cccdcf;fill-opacity:1;stroke:#9b9b9b;stroke-width:0.6;stroke-dasharray:none;stroke-opacity:1"
         transform="translate(256,-340)"><path
           d="m 363.57729,451.48914 -8.681,-8.061 v -13.206 h -10 v 3.921 l -10,-9.286 -28.68,26.632 c -0.404,0.376 -0.428,1.009 -0.052,1.414 0.375,0.404 1.008,0.427 1.414,0.052 l 3.319,-3.082 v 33.349 h 16 16 16 v -33.35 l 3.319,3.082 c 0.192,0.179 0.437,0.267 0.681,0.267 0.269,0 0.536,-0.107 0.732,-0.319 0.376,-0.404 0.352,-1.037 -0.052,-1.413 z m -16.681,-19.267 h 6 v 9.349 l -6,-5.571 z m 10,49 h -14 c -22.44558,0.0387 8.28571,0.0459 -16,0 h -14 v -33.207 l 22,-20.429 14.28,13.26 5.72,5.311 v 0 l 2,1.857 z"
           id="path167877"
           style="stroke-width:0.6;stroke-dasharray:none" /><g
           id="g168268"
           transform="matrix(0.0653903,0,0,0.0653903,317.8648,443.24554)"><path
             d="m 256,92.3 c -74.2,0 -127.8,55.3 -136.3,114.7 -5.3,39.6 7.5,78.2 34.1,107.4 23.4,25 36.2,58.4 36.2,92.8 l -0.1,54.2 c 0,21.9 18.1,39.6 40.5,39.6 h 52.2 c 22.4,0 40.5,-17.7 40.5,-39.6 l 0.1,-54.2 c 0,-35.4 11.7,-67.8 34.1,-90.7 24.5,-25 37.3,-57.3 37.3,-90.7 C 394.5,151.7 331.6,92.3 256,92.3 Z m 46.8,369.1 c 0,10.4 -8.5,18.8 -19.2,18.8 h -52.2 c -10.7,0 -19.2,-8.3 -19.2,-18.8 v -24 h 90.5 v 24 z m 39.6,-159.5 c -26.6,27.1 -40.5,64.6 -40.5,105.3 v 9.4 h -90.5 v -9.4 c 0,-38.6 -16,-77.1 -42.6,-106.3 -23.4,-25 -33,-57.3 -28.8,-90.7 7.5,-50 54,-97 116.1,-97 65,0 117.2,51.1 117.2,112.6 0,28.1 -10.7,55.2 -30.9,76.1 z"
             id="path215989" /><rect
             width="21.299999"
             x="245.3"
             y="11"
             height="50"
             id="rect215991" /><polygon
             points="436.5,87.2 421.5,72.3 385.1,107.4 400,122.3 "
             id="polygon215993" /><rect
             width="52.200001"
             x="448.79999"
             y="236.2"
             height="20.9"
             id="rect215995" /><rect
             width="52.200001"
             x="11"
             y="236.2"
             height="20.9"
             id="rect215997" /><polygon
             points="111.6,122.2 126.5,107.3 90.1,72.2 75.1,87.1 "
             id="polygon215999" /></g></g></g><rect
       id="content"
       width="1080"
       height="1920"
       x="0"
       y="220"
       style="fill:#000000;fill-opacity:1;fill-rule:nonzero;stroke:none;stroke-width:1;stroke-miterlimit:4;stroke-dash:array:none;stroke-opacity:1" /></g></svg>
